<svg width="210" height="200" viewBox="0 0 210 200" fill="none" xmlns="http://www.w3.org/2000/svg">
<path d="M166.25 116.667V141.667C166.25 146.25 162.312 150 157.5 150H148.75V116.667H166.25ZM61.25 116.667V150H52.5C47.6875 150 43.75 146.25 43.75 141.667V116.667H61.25ZM105 8.33337C61.5125 8.33337 26.25 41.9167 26.25 83.3334V141.667C26.25 155.5 37.975 166.667 52.5 166.667H78.75V100H43.75V83.3334C43.75 51.0834 71.1375 25 105 25C138.862 25 166.25 51.0834 166.25 83.3334V100H131.25V166.667H157.5C172.025 166.667 183.75 155.5 183.75 141.667V83.3334C183.75 41.9167 148.487 8.33337 105 8.33337Z" fill="#FCE6E6"/>
</svg>
