<svg width="80" height="80" viewBox="0 0 80 80" fill="none" xmlns="http://www.w3.org/2000/svg">
<path d="M79.9914 40C79.9914 45.7717 80.0075 51.5434 79.9914 57.3312C79.9592 65.7146 76.0575 71.9216 69.0925 76.3068C65.0135 78.8541 60.4831 79.9826 55.6785 79.9826C45.1666 79.9826 34.6708 80.031 24.1588 79.9665C16.8553 79.9181 10.5675 77.3386 5.58559 71.9216C2.50617 68.5682 0.668192 64.6183 0.136146 60.0558C0.0232882 59.0885 0.0071656 58.1373 0.0071656 57.1699C0.0071656 45.6749 -0.008957 34.18 0.0071656 22.685C0.0555334 14.2854 3.9572 8.07842 10.9222 3.69323C15.0334 1.12983 19.58 0.0174117 24.4168 0.0174117C34.8965 0.0174117 45.3762 -0.0309542 55.8559 0.0335338C63.1916 0.0818998 69.4956 2.67754 74.4775 8.12678C77.5246 11.464 79.3465 15.4139 79.8624 19.9281C80.072 21.7015 79.9753 23.4749 79.9914 25.2322C80.0075 30.1656 79.9914 35.0828 79.9914 40ZM5.98865 40C5.98865 45.9168 5.97253 51.8174 5.98865 57.7342C6.00477 61.797 7.48805 65.2954 10.2611 68.1974C13.9855 72.0828 18.6288 73.9691 23.9654 74.0013C34.5579 74.0658 45.1343 74.0174 55.7269 74.0174C59.1449 74.0174 62.4016 73.2758 65.3682 71.5669C70.9144 68.3909 74.0422 63.7155 74.0422 57.1699C74.0422 45.5299 74.0422 33.9059 74.0422 22.2658C74.0422 18.2353 72.575 14.7529 69.818 11.8671C66.126 7.96556 61.4665 6.04704 56.1461 6.0148C45.4407 5.93419 34.7514 5.98256 24.046 5.98256C20.7086 5.98256 17.5486 6.77253 14.6465 8.41698C9.11644 11.6091 5.97253 16.2845 5.98865 22.8301C5.98865 28.5534 5.98865 34.2767 5.98865 40Z" fill="white"/>
<path d="M40.0557 57.089C29.6405 57.089 21.289 48.77 21.3051 38.3874C21.3212 28.2789 29.7856 19.9922 40.1202 20.0083C50.5032 20.0083 58.8869 28.3434 58.8708 38.6292C58.8547 48.8184 50.4225 57.089 40.0557 57.089ZM40.0557 51.1238C47.1335 51.1238 52.9054 45.4972 52.9054 38.5809C52.9054 31.6323 47.1819 25.9735 40.1202 25.9735C33.0424 25.9735 27.2705 31.6001 27.2705 38.5164C27.2705 45.465 32.994 51.1238 40.0557 51.1238Z" fill="white"/>
<path d="M57.0973 18.4934C57.0973 16.2041 58.8547 14.3662 61.0474 14.3662C63.24 14.3662 64.9974 16.2202 64.9974 18.4934C64.9974 20.7344 63.24 22.5723 61.0796 22.5884C58.8869 22.6046 57.0973 20.7828 57.0973 18.4934Z" fill="white"/>
</svg>
