<svg width="215" height="200" viewBox="0 0 215 200" fill="none" xmlns="http://www.w3.org/2000/svg">
<path d="M170.208 25H44.7917C34.9375 25 26.875 32.5 26.875 41.6667V158.333C26.875 167.5 34.9375 175 44.7917 175H170.208C180.062 175 188.125 167.5 188.125 158.333V41.6667C188.125 32.5 180.062 25 170.208 25ZM125.417 120.833H127.656V158.333H87.3437V120.833H89.5833C94.5104 120.833 98.5417 117.083 98.5417 112.5V41.6667H116.458V112.5C116.458 117.083 120.49 120.833 125.417 120.833ZM44.7917 41.6667H62.7083V112.5C62.7083 117.083 66.7396 120.833 71.6667 120.833H73.9062V158.333H44.7917V41.6667ZM170.208 158.333H141.094V120.833H143.333C148.26 120.833 152.292 117.083 152.292 112.5V41.6667H170.208V158.333Z" fill="#FCE6E6"/>
</svg>
