<svg width="200" height="201" viewBox="0 0 200 201" fill="none" xmlns="http://www.w3.org/2000/svg">
<path d="M166.667 50.744H69.1667L138 22.9663L132.333 9.16064L27 51.9915C20.9167 54.3202 16.6667 60.4745 16.6667 67.3773V167.177C16.6667 176.326 24.0834 183.811 33.3334 183.811H166.667C175.917 183.811 183.333 176.326 183.333 167.177V67.3773C183.333 58.1458 175.917 50.744 166.667 50.744ZM166.667 67.3773V92.3273H150V75.694H133.333V92.3273H33.3334V67.3773H166.667ZM33.3334 167.177V108.961H166.667V167.177H33.3334Z" fill="#FCE6E6"/>
<path d="M66.6667 158.694C78.1726 158.694 87.5 149.386 87.5 137.903C87.5 126.42 78.1726 117.111 66.6667 117.111C55.1607 117.111 45.8333 126.42 45.8333 137.903C45.8333 149.386 55.1607 158.694 66.6667 158.694Z" fill="#FCE6E6"/>
</svg>
