<svg width="100" height="80" viewBox="0 0 100 80" fill="none" xmlns="http://www.w3.org/2000/svg">
<path d="M49.8644 0.0343185C54.3786 0.0343185 58.8728 -0.0563048 63.387 0.056976C69.1142 0.192913 74.8414 0.442131 80.5487 0.736661C82.9151 0.872598 85.3213 0.940566 87.6679 1.46166C93.2559 2.68509 96.5769 6.60461 98.1081 12.7897C98.9234 16.0749 99.2217 19.4507 99.4802 22.8264C100.176 31.9116 100.037 40.9967 99.8382 50.0818C99.7189 55.4513 99.52 60.8661 98.3268 66.1224C97.8297 68.2747 97.253 70.427 96.1593 72.3075C94.1707 75.7286 91.3071 77.677 87.8071 78.402C84.8043 79.0364 81.7617 79.1044 78.7191 79.2629C73.0914 79.5575 67.4636 79.6934 61.8358 79.852C55.174 80.0559 48.5122 80.0106 41.8702 79.9426C36.4811 79.8747 31.072 79.7387 25.6829 79.4895C21.129 79.2856 16.5552 79.195 12.0609 78.1981C9.57516 77.6544 7.3678 76.4762 5.45874 74.5278C3.66899 72.67 2.75423 70.2684 2.0781 67.731C0.626412 62.2935 0.526982 56.6747 0.22869 51.056C-0.109374 44.4857 -0.00994304 37.9154 0.12926 31.3678C0.248576 25.8397 0.467324 20.2889 1.48151 14.8515C2.0781 11.6343 2.89343 8.43976 4.9417 5.97024C7.46723 2.93431 10.6888 1.48431 14.3279 1.18978C18.683 0.849942 23.0579 0.62338 27.413 0.419474C34.8902 0.0569757 42.3872 -0.0563062 49.8644 0.0343185ZM66.3898 38.8217C66.3102 38.5498 66.0915 38.5045 65.9324 38.4139C61.2591 35.6045 56.566 32.7951 51.8729 29.9858C48.1542 27.7655 44.4355 25.5225 40.7168 23.2796C39.6827 22.6678 39.6628 22.6905 39.6628 24.0499C39.6628 33.8147 39.6628 43.5795 39.6628 53.3669C39.6628 53.5482 39.6628 53.7521 39.6628 53.9334C39.643 54.5224 39.8418 54.7037 40.3191 54.4091C40.8958 54.0466 41.4725 53.6841 42.0691 53.3216C49.9042 48.6998 57.7592 44.0553 65.5943 39.4334C65.8727 39.2522 66.2307 39.1842 66.3898 38.8217Z" fill="white"/>
</svg>
